<svg width="75" height="99" viewBox="0 0 75 99" fill="none" xmlns="http://www.w3.org/2000/svg">
<mask id="path-1-outside-1_3109_21629" maskUnits="userSpaceOnUse" x="0" y="0" width="75" height="146" fill="black">
<rect fill="white" width="75" height="146"/>
<path d="M33.8 144V58.4H2.2V31.2H14.6C21 31.2 26.2 30.3333 30.2 28.6C34.2 26.7333 37.1333 23.6667 39 19.4C40.8667 15.1333 41.8 9.33333 41.8 1.99999H73V144H33.8Z"/>
</mask>
<path d="M33.8 144H31.8V146H33.8V144ZM33.8 58.4H35.8V56.4H33.8V58.4ZM2.2 58.4H0.2V60.4H2.2V58.4ZM2.2 31.2V29.2H0.2V31.2H2.2ZM30.2 28.6L30.9952 30.4351L31.0207 30.4241L31.0458 30.4124L30.2 28.6ZM41.8 1.99999V-7.62939e-06H39.8V1.99999H41.8ZM73 1.99999H75V-7.62939e-06H73V1.99999ZM73 144V146H75V144H73ZM33.8 144H35.8V58.4H33.8H31.8V144H33.8ZM33.8 58.4V56.4H2.2V58.4V60.4H33.8V58.4ZM2.2 58.4H4.2V31.2H2.2H0.2V58.4H2.2ZM2.2 31.2V33.2H14.6V31.2V29.2H2.2V31.2ZM14.6 31.2V33.2C21.1564 33.2 26.6553 32.3157 30.9952 30.4351L30.2 28.6L29.4048 26.7649C25.7447 28.3509 20.8436 29.2 14.6 29.2V31.2ZM30.2 28.6L31.0458 30.4124C35.5124 28.328 38.7824 24.8872 40.8323 20.2016L39 19.4L37.1677 18.5984C35.4843 22.4461 32.8876 25.1387 29.3542 26.7876L30.2 28.6ZM39 19.4L40.8323 20.2016C42.8548 15.5788 43.8 9.46802 43.8 1.99999H41.8H39.8C39.8 9.19864 38.8785 14.6879 37.1677 18.5984L39 19.4ZM41.8 1.99999V3.99999H73V1.99999V-7.62939e-06H41.8V1.99999ZM73 1.99999H71V144H73H75V1.99999H73ZM73 144V142H33.8V144V146H73V144Z" fill="#8E8EE0" mask="url(#path-1-outside-1_3109_21629)"/>
</svg>
