<svg width="116" height="99" viewBox="0 0 116 99" fill="none" xmlns="http://www.w3.org/2000/svg">
<mask id="path-1-outside-1_3109_21630" maskUnits="userSpaceOnUse" x="0" y="0" width="129" height="146" fill="black">
<rect fill="white" width="129" height="146"/>
<path d="M71.6 144V119.4H2V89.6L62.8 1.99999H110.8V88H126.8V119.4H110.8V144H71.6ZM41.8 88H71.6V46.8L41.8 88Z"/>
</mask>
<path d="M71.6 144H69.6V146H71.6V144ZM71.6 119.4H73.6V117.4H71.6V119.4ZM2 119.4H2.38419e-07V121.4H2V119.4ZM2 89.6L0.356967 88.4596L2.38419e-07 88.9739V89.6H2ZM62.8 1.99999V-7.62939e-06H61.7536L61.157 0.859623L62.8 1.99999ZM110.8 1.99999H112.8V-7.62939e-06H110.8V1.99999ZM110.8 88H108.8V90H110.8V88ZM126.8 88H128.8V86H126.8V88ZM126.8 119.4V121.4H128.8V119.4H126.8ZM110.8 119.4V117.4H108.8V119.4H110.8ZM110.8 144V146H112.8V144H110.8ZM41.8 88L40.1795 86.8279L37.8851 90H41.8V88ZM71.6 88V90H73.6V88H71.6ZM71.6 46.8H73.6V40.6223L69.9795 45.6279L71.6 46.8ZM71.6 144H73.6V119.4H71.6H69.6V144H71.6ZM71.6 119.4V117.4H2V119.4V121.4H71.6V119.4ZM2 119.4H4V89.6H2H2.38419e-07V119.4H2ZM2 89.6L3.64303 90.7404L64.443 3.14036L62.8 1.99999L61.157 0.859623L0.356967 88.4596L2 89.6ZM62.8 1.99999V3.99999H110.8V1.99999V-7.62939e-06H62.8V1.99999ZM110.8 1.99999H108.8V88H110.8H112.8V1.99999H110.8ZM110.8 88V90H126.8V88V86H110.8V88ZM126.8 88H124.8V119.4H126.8H128.8V88H126.8ZM126.8 119.4V117.4H110.8V119.4V121.4H126.8V119.4ZM110.8 119.4H108.8V144H110.8H112.8V119.4H110.8ZM110.8 144V142H71.6V144V146H110.8V144ZM41.8 88V90H71.6V88V86H41.8V88ZM71.6 88H73.6V46.8H71.6H69.6V88H71.6ZM71.6 46.8L69.9795 45.6279L40.1795 86.8279L41.8 88L43.4205 89.1721L73.2205 47.9721L71.6 46.8Z" fill="#8E8EE0" mask="url(#path-1-outside-1_3109_21630)"/>
</svg>
