<svg width="113" height="103" viewBox="0 0 113 103" fill="none" xmlns="http://www.w3.org/2000/svg">
<mask id="path-1-outside-1_3109_21630" maskUnits="userSpaceOnUse" x="0" y="0" width="124" height="154" fill="black">
<rect fill="white" width="124" height="154"/>
<path d="M62.8 151.2C44 151.2 29.4667 147 19.2 138.6C9.06667 130.067 3.66667 118.2 3 103L42.8 101.8C43.4667 107.8 45.4 112.333 48.6 115.4C51.9333 118.333 56.6667 119.8 62.8 119.8C66.6667 119.8 70 119.2 72.8 118C75.6 116.667 77.7333 114.867 79.2 112.6C80.8 110.2 81.6 107.467 81.6 104.4C81.6 99.3333 79.8 95.4667 76.2 92.8C72.6 90 67.6 88.6 61.2 88.6H47.4V62.2H61.2C65.7333 62.2 69.5333 61.1333 72.6 59C75.8 56.8667 77.4 53.3333 77.4 48.4C77.4 44.2667 76.2 40.8667 73.8 38.2C71.4 35.5333 67.3333 34.2 61.6 34.2C55.8667 34.2 51.5333 35.4667 48.6 38C45.8 40.5333 44.0667 43.6 43.4 47.2L4.2 45.4C5.66667 32.3333 11.4 22 21.4 14.4C31.4 6.66666 44.8 2.8 61.6 2.8C73.8667 2.8 84.1333 4.46666 92.4 7.79999C100.667 11 106.867 15.6667 111 21.8C115.267 27.9333 117.4 35.2 117.4 43.6C117.4 51.7333 114.6 58.6 109 64.2C103.4 69.6667 95.6 73.3333 85.6 75.2V72C97.4667 74 106.467 78.0667 112.6 84.2C118.733 90.2 121.8 98.1333 121.8 108C121.8 116.933 119.4 124.667 114.6 131.2C109.933 137.6 103.2 142.533 94.4 146C85.6 149.467 75.0667 151.2 62.8 151.2Z"/>
</mask>
<path d="M19.2 138.6L17.9117 140.13L17.9226 140.139L17.9335 140.148L19.2 138.6ZM3 103L2.93973 101.001L0.913078 101.062L1.00192 103.088L3 103ZM42.8 101.8L44.7878 101.579L44.584 99.7453L42.7397 99.8009L42.8 101.8ZM48.6 115.4L47.2162 116.844L47.2469 116.873L47.2787 116.901L48.6 115.4ZM72.8 118L73.5878 119.838L73.6242 119.823L73.6599 119.806L72.8 118ZM79.2 112.6L77.5359 111.491L77.5283 111.502L77.5209 111.513L79.2 112.6ZM76.2 92.8L74.9721 94.3787L74.9907 94.3931L75.0096 94.4071L76.2 92.8ZM47.4 88.6H45.4V90.6H47.4V88.6ZM47.4 62.2V60.2H45.4V62.2H47.4ZM72.6 59L71.4906 57.3359L71.4741 57.3469L71.4579 57.3582L72.6 59ZM48.6 38L47.2928 36.4864L47.2753 36.5014L47.2582 36.5169L48.6 38ZM43.4 47.2L43.3083 49.1979L45.0492 49.2778L45.3666 47.5642L43.4 47.2ZM4.2 45.4L2.21248 45.1769L1.97419 47.2999L4.10826 47.3979L4.2 45.4ZM21.4 14.4L22.6102 15.9923L22.6169 15.9872L22.6235 15.9821L21.4 14.4ZM92.4 7.79999L91.6521 9.65488L91.665 9.6601L91.678 9.66513L92.4 7.79999ZM111 21.8L109.341 22.9177L109.35 22.93L109.358 22.9421L111 21.8ZM109 64.2L110.397 65.6311L110.406 65.6227L110.414 65.6142L109 64.2ZM85.6 75.2H83.6V77.6079L85.967 77.166L85.6 75.2ZM85.6 72L85.9324 70.0278L83.6 69.6347V72H85.6ZM112.6 84.2L111.186 85.6142L111.194 85.622L111.201 85.6297L112.6 84.2ZM114.6 131.2L112.988 130.016L112.984 130.022L114.6 131.2ZM94.4 146L93.667 144.139V144.139L94.4 146ZM62.8 151.2V149.2C44.2725 149.2 30.2527 145.059 20.4665 137.052L19.2 138.6L17.9335 140.148C28.6807 148.941 43.7275 153.2 62.8 153.2V151.2ZM19.2 138.6L20.4883 137.07C10.848 128.952 5.64424 117.645 4.99808 102.912L3 103L1.00192 103.088C1.6891 118.755 7.28533 131.181 17.9117 140.13L19.2 138.6ZM3 103L3.06028 104.999L42.8603 103.799L42.8 101.8L42.7397 99.8009L2.93973 101.001L3 103ZM42.8 101.8L40.8122 102.021C41.5119 108.318 43.5728 113.352 47.2162 116.844L48.6 115.4L49.9838 113.956C47.2272 111.314 45.4214 107.282 44.7878 101.579L42.8 101.8ZM48.6 115.4L47.2787 116.901C51.096 120.261 56.3659 121.8 62.8 121.8V119.8V117.8C56.9674 117.8 52.7707 116.406 49.9213 113.899L48.6 115.4ZM62.8 119.8V121.8C66.8673 121.8 70.4816 121.17 73.5878 119.838L72.8 118L72.0122 116.162C69.5184 117.23 66.466 117.8 62.8 117.8V119.8ZM72.8 118L73.6599 119.806C76.7436 118.337 79.1828 116.308 80.8791 113.687L79.2 112.6L77.5209 111.513C76.2839 113.425 74.4565 114.996 71.9401 116.194L72.8 118ZM79.2 112.6L80.8641 113.709C82.6972 110.96 83.6 107.835 83.6 104.4H81.6H79.6C79.6 107.098 78.9028 109.44 77.5359 111.491L79.2 112.6ZM81.6 104.4H83.6C83.6 98.7948 81.5716 94.29 77.3905 91.1929L76.2 92.8L75.0096 94.4071C78.0284 96.6433 79.6 99.8718 79.6 104.4H81.6ZM76.2 92.8L77.4279 91.2213C73.3596 88.0571 67.8691 86.6 61.2 86.6V88.6V90.6C67.3309 90.6 71.8404 91.9429 74.9721 94.3787L76.2 92.8ZM61.2 88.6V86.6H47.4V88.6V90.6H61.2V88.6ZM47.4 88.6H49.4V62.2H47.4H45.4V88.6H47.4ZM47.4 62.2V64.2H61.2V62.2V60.2H47.4V62.2ZM61.2 62.2V64.2C66.0531 64.2 70.2742 63.0543 73.7421 60.6418L72.6 59L71.4579 57.3582C68.7924 59.2124 65.4136 60.2 61.2 60.2V62.2ZM72.6 59L73.7094 60.6641C77.622 58.0557 79.4 53.7896 79.4 48.4H77.4H75.4C75.4 52.8771 73.9781 55.6776 71.4906 57.3359L72.6 59ZM77.4 48.4H79.4C79.4 43.8528 78.0671 39.9515 75.2866 36.8621L73.8 38.2L72.3134 39.5379C74.3329 41.7818 75.4 44.6806 75.4 48.4H77.4ZM73.8 38.2L75.2866 36.8621C72.331 33.5781 67.5684 32.2 61.6 32.2V34.2V36.2C67.0983 36.2 70.469 37.4886 72.3134 39.5379L73.8 38.2ZM61.6 34.2V32.2C55.6105 32.2 50.7289 33.5188 47.2928 36.4864L48.6 38L49.9072 39.5136C52.3378 37.4146 56.1229 36.2 61.6 36.2V34.2ZM48.6 38L47.2582 36.5169C44.1438 39.3347 42.1826 42.7901 41.4334 46.8358L43.4 47.2L45.3666 47.5642C45.9507 44.4099 47.4562 41.732 49.9418 39.4831L48.6 38ZM43.4 47.2L43.4917 45.2021L4.29174 43.4021L4.2 45.4L4.10826 47.3979L43.3083 49.1979L43.4 47.2ZM4.2 45.4L6.18752 45.6231C7.59639 33.0713 13.068 23.2444 22.6102 15.9923L21.4 14.4L20.1898 12.8077C9.73203 20.7556 3.73695 31.5953 2.21248 45.1769L4.2 45.4ZM21.4 14.4L22.6235 15.9821C32.1733 8.59689 45.0975 4.8 61.6 4.8V2.8V0.799999C44.5025 0.799999 30.6267 4.73643 20.1765 12.8179L21.4 14.4ZM61.6 2.8V4.8C73.7004 4.8 83.6943 6.44612 91.6521 9.65488L92.4 7.79999L93.1479 5.94511C84.5723 2.48721 74.033 0.799999 61.6 0.799999V2.8ZM92.4 7.79999L91.678 9.66513C99.6407 12.7474 105.479 17.1861 109.341 22.9177L111 21.8L112.659 20.6823C108.254 14.1472 101.693 9.25254 93.122 5.93486L92.4 7.79999ZM111 21.8L109.358 22.9421C113.363 28.6994 115.4 35.5556 115.4 43.6H117.4H119.4C119.4 34.8444 117.17 27.1673 112.642 20.6579L111 21.8ZM117.4 43.6H115.4C115.4 51.2189 112.8 57.572 107.586 62.7858L109 64.2L110.414 65.6142C116.4 59.628 119.4 52.2477 119.4 43.6H117.4ZM109 64.2L107.603 62.7688C102.36 67.8874 94.9596 71.4183 85.233 73.234L85.6 75.2L85.967 77.166C96.2404 75.2483 104.44 71.4459 110.397 65.6311L109 64.2ZM85.6 75.2H87.6V72H85.6H83.6V75.2H85.6ZM85.6 72L85.2676 73.9722C96.879 75.9292 105.44 79.8689 111.186 85.6142L112.6 84.2L114.014 82.7858C107.493 76.2644 98.0544 72.0708 85.9324 70.0278L85.6 72ZM112.6 84.2L111.201 85.6297C116.892 91.1962 119.8 98.5836 119.8 108H121.8H123.8C123.8 97.6831 120.575 89.2038 113.999 82.7703L112.6 84.2ZM121.8 108H119.8C119.8 116.553 117.51 123.861 112.988 130.016L114.6 131.2L116.212 132.384C121.29 125.472 123.8 117.314 123.8 108H121.8ZM114.6 131.2L112.984 130.022C108.581 136.06 102.183 140.784 93.667 144.139L94.4 146L95.133 147.861C104.217 144.282 111.286 139.14 116.216 132.378L114.6 131.2ZM94.4 146L93.667 144.139C85.1584 147.491 74.8867 149.2 62.8 149.2V151.2V153.2C75.2467 153.2 86.0416 151.442 95.133 147.861L94.4 146Z" fill="#8E8EE0" mask="url(#path-1-outside-1_3109_21630)"/>
</svg>
