<svg width="109" height="103" viewBox="0 0 109 103" fill="none" xmlns="http://www.w3.org/2000/svg">
<mask id="path-1-outside-1_3109_21631" maskUnits="userSpaceOnUse" x="0" y="0" width="118" height="150" fill="black">
<rect fill="white" width="118" height="150"/>
<path d="M2.4 148C2.4 134.4 4.06667 122.867 7.4 113.4C10.7333 103.933 15.9333 95.8 23 89C30.0667 82.0667 39.1333 75.7333 50.2 70C56.6 66.6667 61.6 63.8667 65.2 61.6C68.9333 59.2 71.5333 56.9333 73 54.8C74.4667 52.5333 75.2 50 75.2 47.2C75.2 44.6667 74.6 42.4667 73.4 40.6C72.3333 38.6 70.7333 37.0667 68.6 36C66.4667 34.8 63.8 34.2 60.6 34.2C55.2667 34.2 51 36 47.8 39.6C44.7333 43.2 42.8667 48.4667 42.2 55.4L2.2 53.2C3.26667 37.2 8.86667 24.8 19 16C29.1333 7.2 42.8667 2.8 60.2 2.8C71.8 2.8 81.6667 4.66666 89.8 8.4C98.0667 12 104.333 17.1333 108.6 23.8C113 30.3333 115.2 38 115.2 46.8C115.2 54.2667 113.933 60.5333 111.4 65.6C108.867 70.5333 104.933 75.0667 99.6 79.2C94.2667 83.2 87.4 87.4667 79 92C68.6 97.6 61 102.4 56.2 106.4C51.5333 110.4 49 113.8 48.6 116.6H115.2V148H2.4Z"/>
</mask>
<path d="M2.4 148H0.400001V150H2.4V148ZM7.4 113.4L5.51353 112.736L7.4 113.4ZM23 89L24.3868 90.4411L24.3938 90.4344L24.4007 90.4276L23 89ZM50.2 70L51.12 71.7758L51.1239 71.7738L50.2 70ZM65.2 61.6L66.2656 63.2925L66.2736 63.2874L66.2815 63.2824L65.2 61.6ZM73 54.8L74.6481 55.9331L74.6639 55.91L74.6791 55.8865L73 54.8ZM73.4 40.6L71.6353 41.5412L71.6736 41.613L71.7177 41.6815L73.4 40.6ZM68.6 36L67.6195 37.7431L67.662 37.7671L67.7056 37.7889L68.6 36ZM47.8 39.6L46.3052 38.2713L46.2912 38.287L46.2775 38.3031L47.8 39.6ZM42.2 55.4L42.0902 57.397L44.0071 57.5024L44.1908 55.5914L42.2 55.4ZM2.2 53.2L0.20443 53.067L0.0698366 55.0859L2.09017 55.197L2.2 53.2ZM19 16L17.6886 14.4899L19 16ZM89.8 8.4L88.9657 10.2177L88.9835 10.2258L89.0015 10.2337L89.8 8.4ZM108.6 23.8L106.915 24.8781L106.928 24.8978L106.941 24.9172L108.6 23.8ZM111.4 65.6L113.179 66.5136L113.184 66.504L113.189 66.4944L111.4 65.6ZM99.6 79.2L100.8 80.8L100.813 80.7905L100.825 80.7808L99.6 79.2ZM79 92L79.9482 93.7609L79.9499 93.76L79 92ZM56.2 106.4L54.9196 104.864L54.909 104.872L54.8984 104.881L56.2 106.4ZM48.6 116.6L46.6201 116.317L46.294 118.6H48.6V116.6ZM115.2 116.6H117.2V114.6H115.2V116.6ZM115.2 148V150H117.2V148H115.2ZM2.4 148H4.4C4.4 134.551 6.04968 123.257 9.28647 114.064L7.4 113.4L5.51353 112.736C2.08365 122.477 0.400001 134.249 0.400001 148H2.4ZM7.4 113.4L9.28647 114.064C12.5187 104.885 17.5504 97.0195 24.3868 90.4411L23 89L21.6132 87.5589C14.3163 94.5805 8.94802 102.982 5.51353 112.736L7.4 113.4ZM23 89L24.4007 90.4276C31.2941 83.6642 40.1865 77.4402 51.12 71.7758L50.2 70L49.28 68.2242C38.0802 74.0265 28.8392 80.4691 21.5993 87.5724L23 89ZM50.2 70L51.1239 71.7738C57.544 68.43 62.5987 65.6012 66.2656 63.2925L65.2 61.6L64.1344 59.9075C60.6013 62.1321 55.656 64.9033 49.2761 68.2262L50.2 70ZM65.2 61.6L66.2815 63.2824C70.1014 60.8267 72.9601 58.3883 74.6481 55.9331L73 54.8L71.3519 53.6669C70.1065 55.4784 67.7653 57.5733 64.1185 59.9176L65.2 61.6ZM73 54.8L74.6791 55.8865C76.3633 53.2837 77.2 50.3704 77.2 47.2H75.2H73.2C73.2 49.6296 72.57 51.7829 71.3209 53.7135L73 54.8ZM75.2 47.2H77.2C77.2 44.3389 76.518 41.7516 75.0824 39.5185L73.4 40.6L71.7177 41.6815C72.6821 43.1817 73.2 44.9944 73.2 47.2H75.2ZM73.4 40.6L75.1647 39.6588C73.8923 37.2731 71.9781 35.453 69.4944 34.2111L68.6 36L67.7056 37.7889C69.4885 38.6803 70.7744 39.9269 71.6353 41.5412L73.4 40.6ZM68.6 36L69.5805 34.2569C67.0696 32.8445 64.0409 32.2 60.6 32.2V34.2V36.2C63.5591 36.2 65.8637 36.7555 67.6195 37.7431L68.6 36ZM60.6 34.2V32.2C54.7639 32.2 49.928 34.1956 46.3052 38.2713L47.8 39.6L49.2948 40.9287C52.072 37.8044 55.7694 36.2 60.6 36.2V34.2ZM47.8 39.6L46.2775 38.3031C42.8467 42.3305 40.8975 48.0506 40.2092 55.2086L42.2 55.4L44.1908 55.5914C44.8359 48.8828 46.6199 44.0695 49.3225 40.8969L47.8 39.6ZM42.2 55.4L42.3098 53.403L2.30983 51.203L2.2 53.2L2.09017 55.197L42.0902 57.397L42.2 55.4ZM2.2 53.2L4.19557 53.333C5.23419 37.7537 10.6575 25.8937 20.3114 17.5101L19 16L17.6886 14.4899C7.07586 23.7063 1.29914 36.6463 0.20443 53.067L2.2 53.2ZM19 16L20.3114 17.5101C29.9853 9.109 43.2048 4.8 60.2 4.8V2.8V0.799999C42.5285 0.799999 28.2813 5.291 17.6886 14.4899L19 16ZM60.2 2.8V4.8C71.5939 4.8 81.1595 6.63449 88.9657 10.2177L89.8 8.4L90.6343 6.58234C82.1739 2.69884 72.0061 0.799999 60.2 0.799999V2.8ZM89.8 8.4L89.0015 10.2337C96.9566 13.698 102.891 18.5905 106.915 24.8781L108.6 23.8L110.285 22.7219C105.775 15.6761 99.1767 10.302 90.5985 6.56633L89.8 8.4ZM108.6 23.8L106.941 24.9172C111.093 31.0824 113.2 38.3496 113.2 46.8H115.2H117.2C117.2 37.6504 114.907 29.5843 110.259 22.6828L108.6 23.8ZM115.2 46.8H113.2C113.2 54.051 111.969 59.9905 109.611 64.7056L111.4 65.6L113.189 66.4944C115.898 61.0761 117.2 54.4824 117.2 46.8H115.2ZM111.4 65.6L109.621 64.6864C107.247 69.3093 103.526 73.6269 98.3749 77.6192L99.6 79.2L100.825 80.7808C106.341 76.5064 110.486 71.7574 113.179 66.5136L111.4 65.6ZM99.6 79.2L98.4 77.6C93.1717 81.5212 86.3968 85.7354 78.0501 90.24L79 92L79.9499 93.76C88.4032 89.1979 95.3616 84.8788 100.8 80.8L99.6 79.2ZM79 92L78.0518 90.2391C67.6183 95.8571 59.8766 100.733 54.9196 104.864L56.2 106.4L57.4804 107.936C62.1234 104.067 69.5817 99.3429 79.9482 93.7609L79 92ZM56.2 106.4L54.8984 104.881C52.4981 106.939 50.5811 108.896 49.1962 110.755C47.8218 112.6 46.8851 114.462 46.6201 116.317L48.6 116.6L50.5799 116.883C50.7149 115.938 51.2449 114.7 52.4038 113.145C53.5522 111.604 55.2352 109.861 57.5016 107.919L56.2 106.4ZM48.6 116.6V118.6H115.2V116.6V114.6H48.6V116.6ZM115.2 116.6H113.2V148H115.2H117.2V116.6H115.2ZM115.2 148V146H2.4V148V150H115.2V148Z" fill="#8E8EE0" mask="url(#path-1-outside-1_3109_21631)"/>
</svg>
