<svg width="1400" height="274" viewBox="0 0 1400 274" fill="none" xmlns="http://www.w3.org/2000/svg">
<g filter="url(#filter0_i_3164_9020)">
<path d="M1184.5 184.576C1184.5 590.076 1691.68 -90.7243 1814.88 114.076C1937.61 318.09 1687.91 680.117 1508.72 676.139C1507.33 676.108 1506.05 675.925 1504.7 675.584C1193.51 596.892 485.322 314.549 456.151 301.576C287.321 226.497 456.151 -22.9238 603.151 83.5763C647.433 115.659 673.811 144.052 689.419 162.8C698.218 173.37 713.516 171.702 720.849 160.067C752.258 110.232 806.975 57.2977 862.651 51.0762C996.883 36.0762 1111.38 184.576 963.651 301.576C845.519 395.134 282.651 604.243 -7.34863 676.076C-157.349 734.743 26.9835 589.576 167.383 301.576C307.783 13.5762 -214.616 390.409 -134.616 326.076" stroke="url(#paint0_radial_3164_9020)" stroke-width="100" stroke-linecap="round"/>
</g>
<defs>
<filter id="filter0_i_3164_9020" x="-192.996" y="-49.969" width="2090.64" height="788.901" filterUnits="userSpaceOnUse" color-interpolation-filters="sRGB">
<feFlood flood-opacity="0" result="BackgroundImageFix"/>
<feBlend mode="normal" in="SourceGraphic" in2="BackgroundImageFix" result="shape"/>
<feColorMatrix in="SourceAlpha" type="matrix" values="0 0 0 0 0 0 0 0 0 0 0 0 0 0 0 0 0 0 127 0" result="hardAlpha"/>
<feOffset dy="-50"/>
<feGaussianBlur stdDeviation="25"/>
<feComposite in2="hardAlpha" operator="arithmetic" k2="-1" k3="1"/>
<feColorMatrix type="matrix" values="0 0 0 0 0 0 0 0 0 0 0 0 0 0 0 0 0 0 1 0"/>
<feBlend mode="overlay" in2="shape" result="effect1_innerShadow_3164_9020"/>
</filter>
<radialGradient id="paint0_radial_3164_9020" cx="0" cy="0" r="1" gradientTransform="matrix(-2871.5 -349.733 46.5429 -1002 1916.92 498.892)" gradientUnits="userSpaceOnUse">
<stop stop-color="#DFE6FF"/>
<stop offset="0.985945" stop-color="#F7E4FF"/>
</radialGradient>
</defs>
</svg>
